<svg version="1.1" viewBox="0.0 0.0 467.23622047244095 387.9133858267717" fill="none" stroke="none" stroke-linecap="square" stroke-miterlimit="10" xmlns:xlink="http://www.w3.org/1999/xlink" xmlns="http://www.w3.org/2000/svg"><clipPath id="p.0"><path d="m0 0l467.2362 0l0 387.9134l-467.2362 0l0 -387.9134z" clip-rule="nonzero"/></clipPath><g clip-path="url(#p.0)"><path fill="#000000" fill-opacity="0.0" d="m0 0l467.2362 0l0 387.9134l-467.2362 0z" fill-rule="evenodd"/><path fill="#000000" fill-opacity="0.0" d="m182.37541 50.77412l0 183.81102" fill-rule="evenodd"/><path stroke="#000000" stroke-width="8.0" stroke-linejoin="round" stroke-linecap="butt" d="m182.37541 50.77412l0 183.81102" fill-rule="evenodd"/><path fill="#000000" fill-opacity="0.0" d="m205.63258 50.77412l0 183.81102" fill-rule="evenodd"/><path stroke="#000000" stroke-width="8.0" stroke-linejoin="round" stroke-linecap="butt" d="m205.63258 50.77412l0 183.81102" fill-rule="evenodd"/><path fill="#000000" fill-opacity="0.0" d="m228.89091 50.77412l0 183.81102" fill-rule="evenodd"/><path stroke="#000000" stroke-width="8.0" stroke-linejoin="round" stroke-linecap="butt" d="m228.89091 50.77412l0 183.81102" fill-rule="evenodd"/><path fill="#000000" fill-opacity="0.0" d="m252.14809 50.77412l0 183.81102" fill-rule="evenodd"/><path stroke="#000000" stroke-width="8.0" stroke-linejoin="round" stroke-linecap="butt" d="m252.14809 50.77412l0 183.81102" fill-rule="evenodd"/><path fill="#000000" fill-opacity="0.0" d="m276.1392 50.77412l0 183.81102" fill-rule="evenodd"/><path stroke="#000000" stroke-width="8.0" stroke-linejoin="round" stroke-linecap="butt" d="m276.1392 50.77412l0 183.81102" fill-rule="evenodd"/><path fill="#000000" fill-opacity="0.0" d="m158.39854 34.792492l140.94487 0l0 215.77953l-140.94487 0z" fill-rule="evenodd"/><path stroke="#000000" stroke-width="8.0" stroke-linejoin="round" stroke-linecap="butt" d="m158.39854 34.792492l140.94487 0l0 215.77953l-140.94487 0z" fill-rule="evenodd"/><path fill="#000000" fill-opacity="0.0" d="m138.0552 250.58241l177.29132 0l0 26.866135l-177.29132 0z" fill-rule="evenodd"/><path stroke="#000000" stroke-width="8.0" stroke-linejoin="round" stroke-linecap="butt" d="m138.0552 250.58241l177.29132 0l0 26.866135l-177.29132 0z" fill-rule="evenodd"/><path fill="#000000" fill-opacity="0.0" d="m116.98696 278.19797l223.05511 0l0 26.86615l-223.05511 0z" fill-rule="evenodd"/><path stroke="#000000" stroke-width="8.0" stroke-linejoin="round" stroke-linecap="butt" d="m116.98696 278.19797l223.05511 0l0 26.86615l-223.05511 0z" fill-rule="evenodd"/><path fill="#000000" fill-opacity="0.0" d="m175.10918 7.9106026l110.425186 0l0 26.866142l-110.425186 0z" fill-rule="evenodd"/><path stroke="#000000" stroke-width="8.0" stroke-linejoin="round" stroke-linecap="butt" d="m175.10918 7.9106026l110.425186 0l0 26.866142l-110.425186 0z" fill-rule="evenodd"/><path fill="#000000" fill-opacity="0.0" d="m72.98616 256.54965l0 0c5.561096 -15.263336 19.738457 -26.641525 37.125008 -29.79509c17.386559 -3.1535797 35.301506 2.4037018 46.912315 14.552383l-37.244354 29.254303z" fill-rule="evenodd"/><path fill="#000000" fill-opacity="0.0" d="m72.98616 256.54965l0 0c5.561096 -15.263336 19.738457 -26.641525 37.125008 -29.79509c17.386559 -3.1535797 35.301506 2.4037018 46.912315 14.552383" fill-rule="evenodd"/><path stroke="#000000" stroke-width="8.0" stroke-linejoin="round" stroke-linecap="butt" d="m72.98616 256.54965l0 0c5.561096 -15.263336 19.738457 -26.641525 37.125008 -29.79509c17.386559 -3.1535797 35.301506 2.4037018 46.912315 14.552383" fill-rule="evenodd"/><path fill="#000000" fill-opacity="0.0" d="m13.904659 278.08154l0 0c-1.822649 -12.1953125 6.9698315 -23.80783 21.26754 -28.088745c14.297707 -4.2809296 30.375957 -0.11500549 38.890606 10.07663l-27.386948 14.836273z" fill-rule="evenodd"/><path fill="#000000" fill-opacity="0.0" d="m13.904659 278.08154l0 0c-1.822649 -12.1953125 6.9698315 -23.80783 21.26754 -28.088745c14.297707 -4.2809296 30.375957 -0.11500549 38.890606 10.07663" fill-rule="evenodd"/><path stroke="#000000" stroke-width="8.0" stroke-linejoin="round" stroke-linecap="butt" d="m13.904659 278.08154l0 0c-1.822649 -12.1953125 6.9698315 -23.80783 21.26754 -28.088745c14.297707 -4.2809296 30.375957 -0.11500549 38.890606 10.07663" fill-rule="evenodd"/><path fill="#000000" fill-opacity="0.0" d="m10.192896 277.84476l143.5681 0" fill-rule="evenodd"/><path stroke="#000000" stroke-width="8.0" stroke-linejoin="round" stroke-linecap="butt" d="m10.192896 277.84476l143.5681 0" fill-rule="evenodd"/><path fill="#000000" fill-opacity="0.0" d="m388.46243 255.398l0 0c-6.3438416 -14.584732 -21.34851 -25.397232 -39.641846 -28.566284c-18.293335 -3.1690521 -37.25891 1.758606 -50.106415 13.018707l39.101624 30.71312z" fill-rule="evenodd"/><path fill="#000000" fill-opacity="0.0" d="m388.46243 255.398l0 0c-6.3438416 -14.584732 -21.34851 -25.397232 -39.641846 -28.566284c-18.293335 -3.1690521 -37.25891 1.758606 -50.106415 13.018707" fill-rule="evenodd"/><path stroke="#000000" stroke-width="8.0" stroke-linejoin="round" stroke-linecap="butt" d="m388.46243 255.398l0 0c-6.3438416 -14.584732 -21.34851 -25.397232 -39.641846 -28.566284c-18.293335 -3.1690521 -37.25891 1.758606 -50.106415 13.018707" fill-rule="evenodd"/><path fill="#000000" fill-opacity="0.0" d="m453.4475 278.37323l0 0c2.1460266 -12.027679 -7.0304565 -23.600021 -22.302704 -28.125717c-15.272217 -4.525696 -32.764496 -0.85621643 -42.51358 8.918381l29.059082 15.742096z" fill-rule="evenodd"/><path fill="#000000" fill-opacity="0.0" d="m453.4475 278.37323l0 0c2.1460266 -12.027679 -7.0304565 -23.600021 -22.302704 -28.125717c-15.272217 -4.525696 -32.764496 -0.85621643 -42.51358 8.918381" fill-rule="evenodd"/><path stroke="#000000" stroke-width="8.0" stroke-linejoin="round" stroke-linecap="butt" d="m453.4475 278.37323l0 0c2.1460266 -12.027679 -7.0304565 -23.600021 -22.302704 -28.125717c-15.272217 -4.525696 -32.764496 -0.85621643 -42.51358 8.918381" fill-rule="evenodd"/><path fill="#000000" fill-opacity="0.0" d="m457.55252 277.84705l-156.86618 0" fill-rule="evenodd"/><path stroke="#000000" stroke-width="8.0" stroke-linejoin="round" stroke-linecap="butt" d="m457.55252 277.84705l-156.86618 0" fill-rule="evenodd"/><path fill="#000000" fill-opacity="0.0" d="m187.44884 277.3304l17.448822 -24.692917" fill-rule="evenodd"/><path stroke="#000000" stroke-width="8.0" stroke-linejoin="round" stroke-linecap="butt" d="m187.44884 277.3304l17.448822 -24.692917" fill-rule="evenodd"/><path fill="#000000" fill-opacity="0.0" d="m273.2569 277.3304l-17.448822 -24.692917" fill-rule="evenodd"/><path stroke="#000000" stroke-width="8.0" stroke-linejoin="round" stroke-linecap="butt" d="m273.2569 277.3304l-17.448822 -24.692917" fill-rule="evenodd"/><g filter="url(#shadowFilter-p.1)"><use xlink:href="#p.1" transform="matrix(1.0 0.0 0.0 1.0 0.0 2.0)"/></g><defs><filter id="shadowFilter-p.1" filterUnits="userSpaceOnUse"><feGaussianBlur in="SourceAlpha" stdDeviation="2.0" result="blur"/><feComponentTransfer in="blur" color-interpolation-filters="sRGB"><feFuncR type="linear" slope="0" intercept="0.0"/><feFuncG type="linear" slope="0" intercept="0.0"/><feFuncB type="linear" slope="0" intercept="0.0"/><feFuncA type="linear" slope="0.5" intercept="0"/></feComponentTransfer></filter></defs><g id="p.1"><path fill="#000000" fill-opacity="0.0" d="m-25.374016 291.67422l517.98425 0.03149414l0 106.64569l-517.98425 -0.03149414z" fill-rule="evenodd"/><path fill="#000000" d="m9.247017 320.04633q9.5 5.79834E-4 15.109375 9.1552734E-4q5.609375 3.6621094E-4 6.796875 0.031677246q5.203125 0.25030518 7.34375 1.2192078q2.15625 0.9688721 3.421875 2.156433q2.703125 2.672058 2.703125 6.468933q0 3.765625 -2.640625 6.6092224q-0.8125 0.89056396 -1.859375 1.5155029q5.734375 1.0628357 9.390625 4.81308q3.96875 4.0783386 3.96875 9.953339q0 5.984375 -3.6875 10.296661q-5.171875 5.98407 -15.96875 6.5458984q-2.734375 0.14047241 -5.40625 0.14031982l-19.171875 -0.0011901855l0 -49.75zm23.0625 17.298279l1.796875 0.21887207l0.5625 3.0517578E-5q2.78125 1.8310547E-4 4.8125 -2.0465698q2.1875 -2.171753 2.1875 -5.343628q0 -3.859375 -3.34375 -5.9377136q-1.6875 -1.0625916 -3.359375 -1.2501831q-1.671875 -0.18762207 -2.609375 -0.2658081q-1.96875 -0.14074707 -5.171875 -0.14093018l0 44.609375l3.90625 2.4414062E-4q5.96875 3.6621094E-4 9.734375 -1.4681702q4.5 -1.5466003 7.140625 -4.9995728q2.484375 -3.2654724 2.484375 -6.8435974q0 -3.59375 -1.0625 -6.046936q-1.046875 -2.468811 -3.046875 -4.187683q-4.078125 -3.5471191 -11.359375 -3.5475464l-2.421875 0.20297241q-1.125 -6.1035156E-5 -1.65625 -0.45324707q-0.515625 -0.45315552 -0.515625 -1.0625305q0 -1.4375 1.921875 -1.4373779zm29.636719 -5.0919495l15.125 9.1552734E-4l0 11.03125q2.421875 -5.9998474 5.21875 -8.827789q2.796875 -2.8435974 5.609375 -2.8434143q1.578125 9.1552734E-5 2.5 0.8282776q0.9375 0.82818604 0.9375 1.859436q0 1.015625 -0.28125 1.6093445q-0.28125 0.59375 -0.734375 1.0155945q-0.953125 0.87493896 -1.796875 0.8748779q-1.328125 -6.1035156E-5 -1.96875 -0.28137207q-1.078125 -0.48443604 -1.921875 -0.48446655q-0.84375 -6.1035156E-5 -2.15625 1.3592224q-1.296875 1.343689 -2.484375 3.7342224q-2.921875 5.843567 -2.921875 12.656067l0 15.015625l-15.125 -9.1552734E-4l0 -37.546875zm41.316406 -6.153717q-3.625 -2.4414062E-4 -5.671875 -1.6097412q-2.03125 -1.6251221 -2.03125 -4.265747q0 -2.203125 2.25 -3.7967224q2.390625 -1.6873474 5.0625 -1.6871948q2.671875 1.5258789E-4 4.125 0.53149414q1.46875 0.53134155 2.484375 1.3751526q2.046875 1.7188721 2.046875 4.000122q0 2.296875 -2.328125 3.8748474q-2.3125 1.5780029 -5.9375 1.5777893zm-7.390625 6.155792l15.125 9.1552734E-4l0 37.546875l-15.125 -9.1552734E-4l0 -37.546875zm34.28515 26.0802q-3.1249924 0.9529419 -3.1249924 2.077942q0 1.09375 1.8281174 1.5157471q3.546875 0.8439636 9.765625 1.0005798q6.21875 0.15664673 9.359375 0.95370483q3.15625 0.7814331 5.015625 1.9846802q3.375 2.218933 3.375 5.875183q0 4.5625 -4.53125 7.4216003q-5.03125 3.1246948 -14.171875 3.1241455q-9.453125 -5.79834E-4 -15.609367 -2.813446q-2.203125 -1.0938721 -2.203125 -2.468872q0 -0.59375 0.4375 -0.9530945q0.4375 -0.34375 0.921875 -0.34371948q0.609375 6.1035156E-5 1.375 0.45321655q1.796875 1.0313721 3.328125 1.7033386q1.53125 0.68759155 4.7968674 1.3127747q3.265625 0.6408386 6.296875 0.6410217q3.046875 1.8310547E-4 4.96875 -0.26531982q1.921875 -0.24987793 3.1875 -0.6091919q2.484375 -0.7342224 2.484375 -1.6560974q0 -0.84375 -0.5 -1.2344055q-0.484375 -0.37503052 -1.28125 -0.67193604q-0.78125 -0.29693604 -2.1875 -0.5470276q-2.875 -0.5001831 -7.84375 -0.75045776q-4.953125 -0.23468018 -7.84375 -0.9536133q-2.8749924 -0.7189331 -4.7031174 -1.8440247q-3.546875 -2.1564636 -3.546875 -5.8127136q0 -5.265625 7.140625 -8.546448q-3.28125 -1.7814636 -5.21875 -4.7190857q-1.921875 -2.9375916 -1.921875 -6.3594666q0 -3.4375 1.28125 -5.953064q1.28125 -2.5155334 3.609375 -4.3435364q4.8749924 -3.9371948 12.609367 -3.936737q3.453125 2.1362305E-4 6.9375 1.0629272q4.984375 -4.812195 9.234375 -4.81192q1.796875 9.1552734E-5 2.65625 0.5939026q0.859375 0.59381104 0.859375 1.515686q0 0.90625 -0.59375 1.312439q-0.59375 0.40621948 -1.125 0.40618896q-0.953125 -6.1035156E-5 -1.609375 -0.21884155q-0.984375 -0.34381104 -2.015625 -0.34387207q-1.890625 -1.2207031E-4 -4.78125 2.6403198q5.734375 2.8128662 7.5 8.078583q0.5625 1.7656555 0.5625 4.3125305q0 2.546875 -1.484375 5.078064q-1.46875 2.5311584 -3.9375 4.359131q-5.125 3.7965393 -12.0625 3.7961426q-3.65625 0.06225586 -7.234375 -1.0629578zm7.375 -1.4995422q5.703125 -0.07778931 9.8125 -2.7806702q4.75 -3.0934448 4.75 -8.35907q0 -5.28125 -4.671875 -8.5159q-4.296875 -2.9533997 -9.890625 -3.0631104l0 22.71875zm55.664062 -25.215363q12.375 7.6293945E-4 12.375 12.032013l0 26.15625l-15.125 -9.460449E-4l0 -34.203125q-0.625 -0.42190552 -1.671875 -0.42196655q-1.03125 -6.1035156E-5 -2.15625 0.49987793q-1.125 0.48431396 -2.359375 1.3592224q-2.640625 1.9373474 -4.671875 4.8434753l0 27.921875l-15.125 -9.1552734E-4l0 -49.75l15.125 9.1552734E-4l0 18.140625q6.015625 -6.577759 13.609375 -6.577301zm38.3125 38.861694q-13.78125 -8.239746E-4 -13.78125 -12.594574l-0.03125 -23.0625l-4.046875 0.17163086q-1.890625 -1.2207031E-4 -1.890625 -1.4376221q0 -1.4375 2.03125 -1.4373779l3.375 0.14083862l0.53125 3.0517578E-5l0 -5.453125l15.078125 -6.7490845l0 12.203125l4.71875 2.746582E-4l3.328125 -0.14041138q2.078125 1.2207031E-4 2.078125 1.4688721q0 0.671875 -0.578125 1.0468445q-0.578125 0.35934448 -1.3125 0.35928345l-4.359375 -0.17214966l-3.875 -2.1362305E-4l0 33.046875q4.109375 -0.06225586 6.859375 -2.3589783q1.296875 -0.98428345 1.84375 -2.531128q0.546875 -1.5468445 0.984375 -1.984314q0.4375 -0.43746948 1.03125 -0.43743896q0.609375 3.0517578E-5 1.03125 0.48443604q0.421875 0.46878052 0.421875 1.1250305q0 0.640625 -0.359375 1.4374695q-0.34375 0.78125 -1.046875 1.671814q-1.59375 1.9686584 -3.65625 3.1247864q-3.765625 2.0778809 -8.375 2.0776062zm73.93359 -5.761139l0.109375 3.5781555q0 0.921875 -0.53125 1.4218445q-0.53125 0.48434448 -1.21875 0.48428345q-0.671875 -3.0517578E-5 -1.078125 -0.45318604q-0.40625 -0.46878052 -0.40625 -1.1719055q0 -0.703125 0.171875 -1.5780945q0.25 -1.09375 0.25 -5.453125l0 -25.65625l-17.6875 -0.0010681152l0 33.921875l-17.96875 -0.0010986328l0 -49.75l17.96875 0.0010986328l0 13.25q7.59375 4.5776367E-4 12.109375 7.324219E-4q4.515625 2.746582E-4 5.578125 -0.030914307l0 -6.109375q0 -3.0625 -0.109375 -3.984375l-0.140625 -1.046875q-0.03125 -0.5 -0.03125 -0.84375q0 -1.625 1.46875 -1.624939q0.53125 6.1035156E-5 1.09375 0.42196655q0.5625 0.42190552 0.5625 1.4062805l-0.140625 4.4999695l0 7.140625l2.21875 -0.3123474q0.625 3.0517578E-5 1.046875 0.37506104q0.421875 0.35940552 0.421875 0.9531555q0 1.375 -2.171875 1.5467529q-0.390625 0.07809448 -0.765625 0.093688965q-0.359375 0.015594482 -0.75 0.046813965l0 28.875zm9.628906 -13.890015q0 -4.21875 1.53125 -7.6717834q1.53125 -3.4686584 4.203125 -6.046631q5.765625 -5.484009 14.484375 -5.48349q8.890625 5.493164E-4 14.484375 5.70401q5.34375 5.375305 5.34375 13.60968q0 8.25 -5.484375 13.812195q-5.65625 5.734009 -14.484375 5.73349q-8.609375 -5.187988E-4 -14.265625 -5.45401q-5.8125 -5.6253357 -5.8125 -14.203461zm19.09375 17.016785q0.28125 0.03125 0.5625 0.031280518l0.5 3.0517578E-5q7.09375 4.272461E-4 11.90625 -4.3898926q5.140625 -4.749695 5.140625 -12.45282q0 -7.515625 -4.8125 -12.187805q-4.75 -4.6408997 -12.28125 -4.6413574l-0.515625 -3.0517578E-5q-0.25 -3.0517578E-5 -0.5 0.031219482l0 33.609375zm44.402344 2.6433105q-13.78125 -8.239746E-4 -13.78125 -12.594574l-0.03125 -23.0625l-4.046875 0.17163086q-1.890625 -1.2207031E-4 -1.890625 -1.4376221q0 -1.4375 2.03125 -1.4373779l3.375 0.14083862l0.53125 3.0517578E-5l0 -5.453125l15.078125 -6.7490845l0 12.203125l4.71875 2.746582E-4l3.328125 -0.14041138q2.078125 1.2207031E-4 2.078125 1.4688721q0 0.671875 -0.578125 1.0468445q-0.578125 0.35934448 -1.3125 0.35928345l-4.359375 -0.17214966l-3.875 -2.1362305E-4l0 33.046875q4.109375 -0.06225586 6.859375 -2.3589783q1.296875 -0.98428345 1.84375 -2.531128q0.546875 -1.5468445 0.984375 -1.984314q0.4375 -0.43746948 1.03125 -0.43743896q0.609375 3.0517578E-5 1.03125 0.48443604q0.421875 0.46878052 0.421875 1.1250305q0 0.640625 -0.359375 1.4374695q-0.34375 0.78125 -1.046875 1.671814q-1.59375 1.9686584 -3.65625 3.1247864q-3.765625 2.0778809 -8.375 2.0776062zm52.027344 -9.215576q1.375 9.1552734E-5 1.375 1.2657166q0 0.953125 -1.234375 2.2499084q-5.546875 5.7027893 -15.21875 5.7022095q-8.6875 -5.187988E-4 -14.625 -5.250885q-6.15625 -5.4378967 -6.15625 -13.781647q0 -8.5 5.5625 -13.984039q5.875 -5.843384 15.609375 -5.8427734q7.796875 4.5776367E-4 13.109375 4.7507935q5.734375 5.0940857 5.734375 13.390961q0 1.203125 -0.078125 2.53125l-23.203125 -0.0014038086l0 15.09375q2.390625 0.4845276 5.390625 0.48468018q6.328125 3.9672852E-4 10.78125 -4.1868286q0.921875 -0.90618896 1.3125 -1.4374084q0.796875 -0.9843445 1.640625 -0.98428345zm-9.375 -26.40683q-2.296875 -0.6563721 -5.1875 -0.6565552q-2.875 -1.8310547E-4 -4.5625 0.37472534l0 15.15625l9.75 5.79834E-4l0 -14.875zm22.453125 -14.795502l15.125 9.1552734E-4l0 49.75l-15.125 -9.1552734E-4l0 -49.75z" fill-rule="nonzero"/></g></g></svg>